<?xml version="1.0" encoding="utf-8"?>
<!-- Generator: Adobe Illustrator 27.0.1, SVG Export Plug-In . SVG Version: 6.00 Build 0)  -->
<svg version="1.1" id="Layer_1" xmlns="http://www.w3.org/2000/svg" xmlns:xlink="http://www.w3.org/1999/xlink" x="0px" y="0px"
	 viewBox="0 0 16 16" style="enable-background:new 0 0 16 16;" xml:space="preserve">
<style type="text/css">
	.st0{fill:#FFFFFF;}
	.st1{enable-background:new    ;}
</style>
<circle class="st0" cx="8" cy="8" r="8"/>
<g class="st1">
	<path d="M6.6,7.8L6.2,6.4H4.7L4.4,7.8H3.1l1.5-5.6h1.7l1.5,5.6H6.6z M5.5,3.4L5.5,3.4L4.9,5.5H6L5.5,3.4z"/>
</g>
<g class="st1">
	<path d="M8.7,7.8V6.9h1.2V3.1H8.7V2.2h3.6v0.9h-1.2v3.8h1.2v0.9H8.7z"/>
</g>
<g class="st1">
	<path d="M3.7,13.8V8.2h3.6v1H4.9v1.3h2.3v1H4.9v1.4h2.4v1H3.7z"/>
</g>
<g class="st1">
	<path d="M8.5,8.2h1.8c1.5,0,2.2,1,2.2,2.8s-0.7,2.8-2.2,2.8H8.5V8.2z M10.2,12.8c0.7,0,1-0.5,1-1.3v-1c0-0.9-0.3-1.3-1-1.3H9.7v3.7
		H10.2z"/>
</g>
</svg>
